<?xml version="1.0" encoding="UTF-8" standalone="no"?><svg xmlns="http://www.w3.org/2000/svg" xmlns:xlink="http://www.w3.org/1999/xlink" contentScriptType="application/ecmascript" contentStyleType="text/css" height="581px" preserveAspectRatio="none" style="width:485px;height:581px;" version="1.1" viewBox="0 0 485 581" width="485px" zoomAndPan="magnify"><defs><filter height="300%" id="frbptwcr8ldkw" width="300%" x="-1" y="-1"><feGaussianBlur result="blurOut" stdDeviation="2.0"/><feColorMatrix in="blurOut" result="blurOut2" type="matrix" values="0 0 0 0 0 0 0 0 0 0 0 0 0 0 0 0 0 0 .4 0"/><feOffset dx="4.0" dy="4.0" in="blurOut2" result="blurOut3"/><feBlend in="SourceGraphic" in2="blurOut3" mode="normal"/></filter></defs><g><ellipse cx="203" cy="18" fill="#000000" filter="url(#frbptwcr8ldkw)" rx="10" ry="10" style="stroke: none; stroke-width: 1.0;"/><rect fill="#FEFECE" filter="url(#frbptwcr8ldkw)" height="35.0938" rx="12.5" ry="12.5" style="stroke: #A80036; stroke-width: 1.5;" width="92" x="157" y="69"/><text fill="#000000" font-family="sans-serif" font-size="12" lengthAdjust="spacingAndGlyphs" textLength="72" x="167" y="91.457">ブログの表示</text><rect fill="#000000" filter="url(#frbptwcr8ldkw)" height="8" style="stroke: none; stroke-width: 1.0;" width="80" x="163" y="145"/><rect fill="#FEFECE" filter="url(#frbptwcr8ldkw)" height="35.0938" rx="12.5" ry="12.5" style="stroke: #A80036; stroke-width: 1.5;" width="176" x="6" y="194"/><text fill="#000000" font-family="sans-serif" font-size="12" lengthAdjust="spacingAndGlyphs" textLength="156" x="16" y="216.457">現在のカテゴリデータの取得</text><rect fill="#000000" filter="url(#frbptwcr8ldkw)" height="8" style="stroke: none; stroke-width: 1.0;" width="80" x="186" y="270"/><rect fill="#FEFECE" filter="url(#frbptwcr8ldkw)" height="35.0938" rx="12.5" ry="12.5" style="stroke: #A80036; stroke-width: 1.5;" width="220" x="202" y="194"/><text fill="#000000" font-family="sans-serif" font-size="12" lengthAdjust="spacingAndGlyphs" textLength="200" x="212" y="216.457">今までのカテゴリデータ(累計)の取得</text><polygon fill="#FEFECE" filter="url(#frbptwcr8ldkw)" points="226,319,238,331,226,343,214,331,226,319" style="stroke: #A80036; stroke-width: 1.5;"/><rect fill="#FEFECE" filter="url(#frbptwcr8ldkw)" height="35.0938" rx="12.5" ry="12.5" style="stroke: #A80036; stroke-width: 1.5;" width="224" x="141" y="474"/><text fill="#000000" font-family="sans-serif" font-size="12" lengthAdjust="spacingAndGlyphs" textLength="204" x="151" y="496.457">円グラフでカテゴリデータを表示する</text><rect fill="#FEFECE" filter="url(#frbptwcr8ldkw)" height="35.0938" rx="12.5" ry="12.5" style="stroke: #A80036; stroke-width: 1.5;" width="224" x="250" y="398"/><text fill="#000000" font-family="sans-serif" font-size="12" lengthAdjust="spacingAndGlyphs" textLength="204" x="260" y="420.457">スプレッドシートのデータを更新する</text><ellipse cx="253" cy="560" fill="none" filter="url(#frbptwcr8ldkw)" rx="10" ry="10" style="stroke: #000000; stroke-width: 1.0;"/><ellipse cx="253.5" cy="560.5" fill="#000000" rx="6" ry="6" style="stroke: none; stroke-width: 1.0;"/><!--link start to ブログの表示--><path d="M203,28.247 C203,37.427 203,51.836 203,63.901 " fill="none" id="start-ブログの表示" style="stroke: #A80036; stroke-width: 1.0;"/><polygon fill="#A80036" points="203,68.907,207,59.907,203,63.907,199,59.907,203,68.907" style="stroke: #A80036; stroke-width: 1.0;"/><!--link ブログの表示 to fork--><path d="M203,104.032 C203,115.512 203,130.336 203,139.503 " fill="none" id="ブログの表示-fork" style="stroke: #A80036; stroke-width: 1.0;"/><polygon fill="#A80036" points="203,144.618,207,135.618,203,139.618,199,135.618,203,144.618" style="stroke: #A80036; stroke-width: 1.0;"/><!--link fork to 現在のカテゴリデータの取得--><path d="M197.445,153.083 C184.866,160.065 153.358,177.554 128.395,191.409 " fill="none" id="fork-現在のカテゴリデータの取得" style="stroke: #A80036; stroke-width: 1.0;"/><polygon fill="#A80036" points="123.816,193.951,133.6264,193.0817,128.188,191.525,129.7448,186.0865,123.816,193.951" style="stroke: #A80036; stroke-width: 1.0;"/><!--link 現在のカテゴリデータの取得 to join--><path d="M130.07,229.032 C158.258,241.952 195.688,259.107 214.365,267.667 " fill="none" id="現在のカテゴリデータの取得-join" style="stroke: #A80036; stroke-width: 1.0;"/><polygon fill="#A80036" points="219.112,269.843,212.5962,262.4576,214.5665,267.7602,209.2638,269.7304,219.112,269.843" style="stroke: #A80036; stroke-width: 1.0;"/><!--link fork to 今までのカテゴリデータ(累計)の取得--><path d="M208.555,153.083 C221.134,160.065 252.642,177.554 277.605,191.409 " fill="none" id="fork-今までのカテゴリデータ(累計)の取得" style="stroke: #A80036; stroke-width: 1.0;"/><polygon fill="#A80036" points="282.184,193.951,276.2552,186.0865,277.812,191.525,272.3736,193.0817,282.184,193.951" style="stroke: #A80036; stroke-width: 1.0;"/><!--link 今までのカテゴリデータ(累計)の取得 to join--><path d="M288.5,229.032 C270.763,241.51 247.409,257.939 234.871,266.76 " fill="none" id="今までのカテゴリデータ(累計)の取得-join" style="stroke: #A80036; stroke-width: 1.0;"/><polygon fill="#A80036" points="230.488,269.843,240.1502,267.9348,234.577,266.9655,235.5463,261.3923,230.488,269.843" style="stroke: #A80036; stroke-width: 1.0;"/><!--link join to #14--><path d="M226,278.276 C226,285.075 226,301.12 226,313.552 " fill="none" id="join-#14" style="stroke: #A80036; stroke-width: 1.0;"/><polygon fill="#A80036" points="226,318.621,230,309.621,226,313.621,222,309.621,226,318.621" style="stroke: #A80036; stroke-width: 1.0;"/><text fill="#000000" font-family="sans-serif" font-size="11" lengthAdjust="spacingAndGlyphs" textLength="77" x="131.1938" y="308.5017">データが等しい</text><!--link #14 to 円グラフでカテゴリデータを表示する--><path d="M223.354,340.573 C218.326,358.235 208.692,399.805 218,433 C221.644,445.997 229.125,458.97 236.238,469.296 " fill="none" id="#14-円グラフでカテゴリデータを表示する" style="stroke: #A80036; stroke-width: 1.0;"/><polygon fill="#A80036" points="239.252,473.5518,237.3144,463.8954,236.3621,469.4715,230.786,468.5193,239.252,473.5518" style="stroke: #A80036; stroke-width: 1.0;"/><text fill="#000000" font-family="sans-serif" font-size="11" lengthAdjust="spacingAndGlyphs" textLength="20" x="219" y="420.4189">Yes</text><!--link #14 to スプレッドシートのデータを更新する--><path d="M232.931,336.205 C250.524,346.877 297.792,375.55 329.97,395.07 " fill="none" id="#14-スプレッドシートのデータを更新する" style="stroke: #A80036; stroke-width: 1.0;"/><polygon fill="#A80036" points="334.602,397.88,328.9817,389.7922,330.3271,395.2868,324.8325,396.6321,334.602,397.88" style="stroke: #A80036; stroke-width: 1.0;"/><text fill="#000000" font-family="sans-serif" font-size="11" lengthAdjust="spacingAndGlyphs" textLength="13" x="299" y="375.4189">No</text><!--link スプレッドシートのデータを更新する to 円グラフでカテゴリデータを表示する--><path d="M337.538,433.107 C320.989,444.342 299.067,459.225 281.693,471.0203 " fill="none" id="スプレッドシートのデータを更新する-円グラフでカテゴリデータを表示する" style="stroke: #A80036; stroke-width: 1.0;"/><polygon fill="#A80036" points="277.38,473.9484,287.0729,472.2025,281.5167,471.1399,282.5793,465.5838,277.38,473.9484" style="stroke: #A80036; stroke-width: 1.0;"/><!--link 円グラフでカテゴリデータを表示する to end--><path d="M253,509.2808 C253,520.2899 253,534.5217 253,544.9361 " fill="none" id="円グラフでカテゴリデータを表示する-end" style="stroke: #A80036; stroke-width: 1.0;"/><polygon fill="#A80036" points="253,549.9969,257,540.9969,253,544.9969,249,540.9969,253,549.9969" style="stroke: #A80036; stroke-width: 1.0;"/><!--
@startuml
(*) - -> "ブログの表示" 
"ブログの表示" - -> ===fork===
===fork=== - -> "現在のカテゴリデータの取得"
- -> ===join===
===fork=== - -> "今までのカテゴリデータ(累計)の取得"
- -> ===join===

if "データが等しい" then
- -> [Yes] "円グラフでカテゴリデータを表示する" 
else
- -> [No] "スプレッドシートのデータを更新する"
- -> "円グラフでカテゴリデータを表示する" 
endif

- -> (*)
@enduml

PlantUML version 1.2018.12(Sun Oct 21 19:15:15 JST 2018)
(GPL source distribution)
Java Runtime: Java(TM) SE Runtime Environment
JVM: Java HotSpot(TM) 64-Bit Server VM
Java Version: 1.8.0_201-b09
Operating System: Windows 10
OS Version: 10.0
Default Encoding: MS932
Language: ja
Country: JP
--></g></svg>